<svg xmlns="http://www.w3.org/2000/svg" width="32" height="32" viewBox="0 0 32 32">
  <path fill="#F7931A" d="M31.4,16c0,8.5-6.9,15.4-15.4,15.4C7.5,31.4,0.6,24.5,0.6,16C0.6,7.5,7.5,0.6,16,0.6
    C24.5,0.6,31.4,7.5,31.4,16z"/>
  <path fill="#FFFFFF" d="M23.2,14.1c0.3-2.1-1.3-3.2-3.4-3.9l0.7-2.8l-1.7-0.4l-0.7,2.7c-0.4-0.1-0.9-0.2-1.3-0.3l0.7-2.7L16,6.3
    l-0.7,2.8c-0.4-0.1-0.7-0.2-1.1-0.2l0,0l-2.3-0.6l-0.4,1.8c0,0,1.3,0.3,1.2,0.3c0.7,0.2,0.8,0.7,0.8,1.1l-0.8,3.2
    c0,0.1,0.1,0.2,0.2,0.2c0,0-0.1,0-0.2-0.1l-1.1,4.4c-0.1,0.2-0.3,0.5-0.8,0.4c0,0-1.2-0.3-1.2-0.3L9,20.5l2.2,0.6
    c0.4,0.1,0.8,0.2,1.2,0.3l-0.7,2.8l1.7,0.4l0.7-2.8c0.4,0.1,0.9,0.2,1.3,0.3l-0.7,2.8l1.7,0.4l0.7-2.8c2.7,0.5,4.7,0.3,5.5-2.1
    c0.7-1.9,0-3.1-1.5-3.8C22.2,16.3,23,15.5,23.2,14.1L23.2,14.1z M19.4,18.9c-0.5,1.9-3.7,0.9-4.7,0.6l0.8-3.4
    C16.6,16.4,19.9,16.9,19.4,18.9z M19.9,14c-0.4,1.8-3.2,0.9-4.1,0.7l0.8-3.1C17.5,11.8,20.3,12.2,19.9,14z"/>
</svg>
